<?xml version="1.0" encoding="UTF-8"?>
<svg xmlns="http://www.w3.org/2000/svg" xmlns:xlink="http://www.w3.org/1999/xlink" width="57pt" height="51pt" viewBox="0 0 57 51" version="1.1">
<g id="surface1">
<path style=" stroke:none;fill-rule:nonzero;fill:rgb(0%,0%,0%);fill-opacity:1;" d="M 57 21.515625 L 57 23.109375 C 57 24.429688 55.9375 25.5 54.625 25.5 L 53.832031 25.5 L 51.25 43.707031 C 50.914062 46.0625 48.910156 47.8125 46.546875 47.8125 L 10.453125 47.8125 C 8.089844 47.8125 6.085938 46.0625 5.75 43.707031 L 3.167969 25.5 L 2.375 25.5 C 1.0625 25.5 0 24.429688 0 23.109375 L 0 21.515625 C 0 20.195312 1.0625 19.125 2.375 19.125 L 9.039062 19.125 L 19.605469 4.5 C 20.632812 3.078125 22.613281 2.761719 24.027344 3.796875 C 25.445312 4.832031 25.757812 6.824219 24.726562 8.25 L 16.871094 19.125 L 40.128906 19.125 L 32.273438 8.25 C 31.242188 6.824219 31.554688 4.832031 32.972656 3.796875 C 34.386719 2.761719 36.367188 3.078125 37.394531 4.5 L 47.960938 19.125 L 54.625 19.125 C 55.9375 19.125 57 20.195312 57 21.515625 Z M 30.875 39.046875 L 30.875 27.890625 C 30.875 26.570312 29.8125 25.5 28.5 25.5 C 27.1875 25.5 26.125 26.570312 26.125 27.890625 L 26.125 39.046875 C 26.125 40.367188 27.1875 41.4375 28.5 41.4375 C 29.8125 41.4375 30.875 40.367188 30.875 39.046875 Z M 41.957031 39.046875 L 41.957031 27.890625 C 41.957031 26.570312 40.894531 25.5 39.582031 25.5 C 38.273438 25.5 37.207031 26.570312 37.207031 27.890625 L 37.207031 39.046875 C 37.207031 40.367188 38.273438 41.4375 39.582031 41.4375 C 40.894531 41.4375 41.957031 40.367188 41.957031 39.046875 Z M 19.792969 39.046875 L 19.792969 27.890625 C 19.792969 26.570312 18.726562 25.5 17.417969 25.5 C 16.105469 25.5 15.042969 26.570312 15.042969 27.890625 L 15.042969 39.046875 C 15.042969 40.367188 16.105469 41.4375 17.417969 41.4375 C 18.726562 41.4375 19.792969 40.367188 19.792969 39.046875 Z M 19.792969 39.046875 "/>
</g>
</svg>
