<?xml version="1.0" encoding="UTF-8"?>
<svg xmlns="http://www.w3.org/2000/svg" xmlns:xlink="http://www.w3.org/1999/xlink" width="7pt" height="7pt" viewBox="0 0 7 7" version="1.1">
<g id="surface1">
<path style=" stroke:none;fill-rule:nonzero;fill:rgb(0%,0%,0%);fill-opacity:1;" d="M 6.90625 6.050781 L 5.542969 4.6875 C 5.480469 4.628906 5.394531 4.59375 5.308594 4.59375 L 5.085938 4.59375 C 5.464844 4.109375 5.6875 3.503906 5.6875 2.84375 C 5.6875 1.273438 4.414062 0 2.84375 0 C 1.273438 0 0 1.273438 0 2.84375 C 0 4.414062 1.273438 5.6875 2.84375 5.6875 C 3.503906 5.6875 4.109375 5.464844 4.59375 5.085938 L 4.59375 5.308594 C 4.59375 5.394531 4.628906 5.480469 4.6875 5.542969 L 6.050781 6.90625 C 6.179688 7.03125 6.390625 7.03125 6.515625 6.90625 L 6.902344 6.515625 C 7.03125 6.390625 7.03125 6.179688 6.90625 6.050781 Z M 2.84375 4.59375 C 1.878906 4.59375 1.09375 3.8125 1.09375 2.84375 C 1.09375 1.878906 1.875 1.09375 2.84375 1.09375 C 3.808594 1.09375 4.59375 1.875 4.59375 2.84375 C 4.59375 3.808594 3.8125 4.59375 2.84375 4.59375 Z M 2.84375 4.59375 "/>
</g>
</svg>
