<?xml version="1.0" encoding="UTF-8"?>
<svg xmlns="http://www.w3.org/2000/svg" xmlns:xlink="http://www.w3.org/1999/xlink" width="36pt" height="41pt" viewBox="0 0 36 41" version="1.1">
<g id="surface1">
<path style=" stroke:none;fill-rule:nonzero;fill:rgb(0%,0%,0%);fill-opacity:1;" d="M 18 20.5 C 23.679688 20.5 28.285156 15.910156 28.285156 10.25 C 28.285156 4.589844 23.679688 0 18 0 C 12.320312 0 7.714844 4.589844 7.714844 10.25 C 7.714844 15.910156 12.320312 20.5 18 20.5 Z M 25.199219 23.0625 L 23.859375 23.0625 C 22.074219 23.878906 20.089844 24.34375 18 24.34375 C 15.910156 24.34375 13.933594 23.878906 12.140625 23.0625 L 10.800781 23.0625 C 4.835938 23.0625 0 27.882812 0 33.824219 L 0 37.15625 C 0 39.277344 1.726562 41 3.855469 41 L 32.144531 41 C 34.273438 41 36 39.277344 36 37.15625 L 36 33.824219 C 36 27.882812 31.164062 23.0625 25.199219 23.0625 Z M 25.199219 23.0625 "/>
</g>
</svg>
